<?xml version="1.0" standalone="no"?>
<!DOCTYPE svg PUBLIC "-//W3C//DTD SVG 20010904//EN"
 "http://www.w3.org/TR/2001/REC-SVG-20010904/DTD/svg10.dtd">
<svg version="1.0" xmlns="http://www.w3.org/2000/svg"
 width="512.000000pt" height="512.000000pt" viewBox="0 0 512.000000 512.000000"
 preserveAspectRatio="xMidYMid meet">
<metadata>
Created by potrace 1.14, written by Peter Selinger 2001-2017
</metadata>
<g transform="translate(0.000000,512.000000) scale(0.100000,-0.100000)"
fill="#000000" stroke="none">
<path d="M2514 4699 c-5 -8 -3 -9 6 -4 9 5 11 4 6 -4 -4 -6 -12 -9 -17 -6 -19
12 -49 13 -49 2 0 -7 -4 -6 -10 3 -5 8 -10 11 -10 5 0 -5 -17 -11 -38 -12 -44
-2 -62 -6 -81 -17 -10 -6 -12 -5 -7 2 8 13 -6 17 -18 5 -8 -8 -29 -13 -72 -17
-17 -2 -35 -5 -40 -8 -11 -7 -85 -31 -101 -34 -7 -1 -27 -9 -44 -18 -18 -9
-38 -16 -46 -16 -7 0 -13 -5 -13 -11 0 -5 -4 -7 -10 -4 -5 3 -10 1 -10 -6 0
-7 -3 -9 -7 -6 -3 4 -17 0 -30 -8 -13 -9 -29 -13 -35 -9 -7 4 -8 3 -4 -4 4 -7
1 -12 -9 -12 -10 0 -13 -5 -9 -12 4 -7 3 -8 -4 -4 -12 7 -182 -101 -182 -116
0 -4 -4 -7 -9 -5 -5 1 -18 -9 -30 -22 -12 -13 -21 -21 -21 -18 0 3 -33 -27
-73 -66 -41 -40 -73 -74 -71 -77 3 -8 -23 -29 -30 -23 -3 4 -6 -1 -6 -10 0 -9
-4 -17 -10 -17 -5 0 -10 -7 -10 -15 0 -8 -5 -15 -12 -15 -6 0 -9 -3 -6 -6 3
-3 -7 -19 -23 -36 -15 -17 -26 -35 -24 -39 3 -4 -2 -10 -11 -13 -9 -4 -14 -9
-11 -12 3 -4 -1 -13 -9 -21 -8 -8 -12 -19 -9 -24 4 -5 -2 -9 -11 -9 -10 0 -15
-3 -11 -6 3 -4 -5 -26 -18 -49 -13 -24 -21 -46 -18 -49 4 -3 1 -6 -5 -6 -7 0
-11 -3 -10 -7 1 -5 -3 -18 -10 -30 -7 -13 -9 -23 -5 -23 4 0 0 -5 -10 -11 -9
-6 -15 -14 -12 -20 4 -5 3 -15 -2 -21 -4 -7 -9 -22 -10 -33 -2 -11 -8 -24 -13
-29 -14 -14 -12 -28 3 -20 6 4 3 -2 -7 -15 -11 -12 -27 -21 -35 -19 -15 2 -81
-8 -126 -19 -11 -3 -28 -6 -37 -6 -10 -1 -18 -5 -18 -10 0 -5 -11 -7 -25 -5
-13 3 -22 2 -20 -3 3 -4 -12 -13 -32 -20 -21 -6 -48 -19 -60 -27 -13 -8 -23
-10 -23 -6 0 5 -5 1 -11 -8 -5 -10 -19 -18 -30 -18 -11 0 -17 -4 -14 -10 3 -5
-1 -10 -9 -10 -9 0 -16 -5 -16 -11 0 -5 -4 -7 -10 -4 -5 3 -10 1 -10 -6 0 -7
-3 -10 -6 -7 -11 11 -157 -131 -202 -197 -15 -22 -29 -42 -32 -45 -3 -3 -17
-26 -30 -52 -14 -27 -28 -48 -32 -48 -4 0 -5 -9 -3 -20 2 -11 0 -20 -6 -20 -5
0 -9 -4 -9 -9 0 -5 -5 -22 -12 -38 -6 -15 -10 -36 -9 -47 2 -12 -1 -16 -10
-11 -9 6 -11 1 -7 -19 3 -14 1 -29 -4 -32 -5 -3 -7 -13 -4 -21 4 -9 -2 -22
-11 -30 -10 -8 -13 -12 -6 -8 9 4 11 -4 8 -26 -2 -17 -6 -34 -9 -37 -3 -3 -1
-11 5 -19 7 -8 7 -13 2 -13 -10 0 -9 -47 1 -57 3 -3 1 -14 -4 -24 -7 -12 -7
-20 0 -24 8 -5 7 -11 -1 -21 -6 -8 -7 -14 -2 -14 6 0 10 -12 11 -27 0 -16 1
-30 2 -33 1 -3 4 -14 5 -25 2 -11 8 -34 13 -52 6 -17 8 -34 4 -37 -3 -3 0 -6
7 -6 7 0 10 -4 6 -9 -3 -5 -1 -12 5 -16 6 -4 8 -11 5 -16 -4 -5 -1 -9 5 -9 6
0 8 -4 5 -10 -3 -5 -1 -10 5 -10 6 0 8 -5 4 -11 -3 -6 -2 -14 4 -18 5 -3 12
-15 14 -26 1 -11 11 -27 21 -36 9 -9 17 -23 17 -32 0 -8 4 -17 8 -19 5 -1 22
-23 39 -48 45 -64 79 -101 87 -93 3 3 6 -1 6 -10 0 -8 9 -19 20 -22 11 -3 20
-13 20 -21 0 -8 5 -14 10 -14 6 0 21 -11 34 -25 25 -27 41 -33 31 -12 -3 6 2
2 11 -10 9 -13 20 -23 25 -23 5 0 26 -11 47 -24 20 -14 46 -26 57 -28 11 -2
28 -12 37 -22 13 -14 18 -15 18 -5 0 11 2 11 10 -1 5 -8 10 -11 10 -6 0 5 7 3
15 -4 8 -7 15 -10 15 -6 0 3 16 0 35 -8 19 -8 35 -12 35 -9 0 3 7 0 15 -7 11
-9 15 -9 15 -1 0 7 5 9 13 4 15 -9 29 -12 83 -16 22 -2 47 -7 54 -12 8 -5 11
-4 7 1 -3 6 10 11 31 11 24 1 42 8 53 22 9 11 19 17 23 14 3 -4 6 0 6 8 0 8 6
26 14 41 12 23 12 29 0 39 -7 6 -11 15 -9 20 3 5 -3 14 -15 21 -11 7 -20 18
-20 24 0 6 -6 11 -12 11 -7 1 -27 6 -44 11 -17 5 -37 6 -45 2 -7 -5 -20 -5
-28 -1 -9 4 -30 7 -48 6 -18 0 -29 3 -26 9 4 5 -1 7 -9 3 -9 -3 -20 -1 -25 4
-5 5 -22 11 -38 13 -38 5 -65 16 -65 26 0 5 -9 7 -20 5 -11 -2 -20 -1 -20 3 0
4 -17 16 -37 27 -42 22 -60 36 -108 82 -19 17 -36 29 -39 25 -3 -3 -6 0 -6 7
0 17 -26 42 -34 33 -4 -3 -4 2 0 12 5 14 4 17 -4 12 -7 -4 -12 -1 -12 8 0 9
-4 16 -10 16 -5 0 -10 7 -10 15 0 8 -5 15 -11 15 -5 0 -7 5 -4 10 3 6 2 10 -3
10 -5 0 -17 20 -28 45 -10 25 -21 45 -24 45 -3 0 -7 9 -8 20 -4 42 -6 50 -12
50 -4 0 -7 6 -7 13 0 6 -4 21 -9 31 -5 13 -4 17 4 12 7 -4 5 5 -3 21 -11 21
-12 29 -2 35 9 6 9 8 0 8 -7 0 -13 9 -13 21 0 13 4 18 12 13 10 -6 10 -4 2 7
-15 19 -6 164 14 218 6 14 14 35 18 46 4 11 8 23 9 28 2 4 4 9 5 12 1 3 3 10
4 15 0 6 8 15 16 20 8 5 11 10 7 10 -5 0 0 12 10 28 10 15 23 36 30 47 6 11
16 19 23 17 6 -1 9 2 5 8 -3 5 3 20 14 32 12 12 21 26 21 32 0 5 3 7 6 4 3 -3
18 6 33 20 51 49 79 70 85 65 3 -3 8 2 12 11 3 9 12 16 20 16 8 0 14 5 14 12
0 6 3 9 6 5 4 -3 24 3 46 14 21 11 44 17 50 13 7 -4 8 -3 4 4 -6 11 19 18 46
13 5 0 8 3 8 8 0 5 8 8 18 6 9 -1 22 2 29 7 7 6 14 5 18 -2 5 -8 11 -8 21 1
15 12 76 15 95 3 7 -4 10 -3 6 2 -3 6 8 10 26 10 33 0 77 29 77 51 0 6 5 15
12 19 7 5 8 3 3 -6 -5 -8 -4 -11 3 -7 5 4 8 16 5 27 -3 11 1 28 8 37 10 12 10
14 2 9 -7 -4 -13 -2 -13 3 0 6 4 11 9 11 5 0 11 18 15 40 3 23 10 39 15 36 5
-3 7 8 5 25 -2 18 0 28 6 24 6 -3 10 1 10 10 0 20 60 149 71 153 5 2 9 9 9 15
0 12 51 90 63 95 4 2 5 8 1 13 -3 5 0 9 6 9 6 0 16 11 22 25 6 14 18 25 25 25
8 0 12 4 9 9 -4 5 9 21 26 37 18 15 33 29 33 32 0 3 15 20 33 38 17 17 32 29
32 25 0 -3 11 6 24 22 13 15 28 27 35 27 6 0 11 5 11 10 0 6 7 10 15 10 8 0
15 5 15 10 0 6 11 15 25 20 14 5 25 14 25 20 0 6 5 8 11 5 6 -4 16 1 24 11 7
11 17 19 22 20 4 0 43 17 86 37 42 20 81 36 85 36 21 -3 32 2 26 13 -5 7 -2 9
8 5 9 -3 19 -3 23 1 4 4 11 8 16 8 5 1 10 2 12 4 3 2 39 10 60 12 9 1 17 7 17
13 0 5 5 3 10 -5 6 -10 10 -11 10 -2 0 6 12 12 28 12 15 0 34 6 41 13 8 6 11
7 8 1 -4 -7 4 -11 22 -10 16 1 27 4 25 7 -2 3 21 5 51 4 30 0 55 1 55 4 0 9
153 -3 170 -14 5 -3 10 0 10 7 0 9 3 9 8 2 4 -6 14 -11 22 -12 42 -1 105 -15
108 -24 2 -5 10 -4 18 3 11 9 14 8 14 -4 0 -10 7 -15 18 -12 10 1 34 -5 55
-15 20 -10 37 -16 37 -14 0 3 13 -2 29 -10 16 -9 31 -12 35 -9 3 4 6 1 6 -6 0
-8 6 -11 17 -7 10 4 14 4 10 0 -4 -4 18 -20 48 -36 50 -25 141 -85 172 -112 7
-6 31 -27 54 -46 23 -19 53 -48 68 -64 72 -78 101 -112 101 -118 0 -4 11 -19
25 -34 13 -14 22 -30 19 -35 -3 -5 0 -9 6 -9 6 0 15 -11 20 -25 5 -14 14 -31
20 -38 18 -21 57 -107 46 -100 -6 4 -4 -2 5 -13 9 -10 20 -30 24 -44 4 -14 12
-30 17 -37 5 -7 7 -17 4 -22 -4 -5 2 -14 11 -20 10 -6 13 -11 6 -11 -9 0 -8
-11 3 -42 8 -23 12 -48 10 -55 -3 -7 -1 -13 4 -13 6 0 10 -7 10 -15 0 -8 5
-15 11 -15 5 0 8 -4 5 -8 -3 -5 8 -16 25 -26 16 -9 29 -14 29 -10 0 3 6 1 14
-5 11 -9 15 -9 18 1 4 10 8 10 20 1 11 -10 17 -10 26 -1 9 9 12 7 13 -7 0 -19
1 -19 9 0 5 11 9 14 9 7 1 -10 6 -10 21 -2 15 8 20 8 20 -1 0 -6 7 -9 15 -6 8
4 17 2 21 -4 3 -6 12 -8 19 -5 7 2 16 2 19 -2 4 -3 16 -7 28 -9 12 -2 28 -9
37 -16 11 -9 13 -9 8 0 -4 7 12 1 35 -12 24 -14 51 -25 61 -25 9 0 17 -7 17
-15 0 -8 6 -15 13 -15 8 0 23 -8 35 -17 11 -10 31 -27 44 -38 12 -11 26 -19
30 -18 4 2 10 -6 13 -17 4 -11 13 -20 21 -20 8 0 13 -4 10 -9 -3 -5 1 -14 9
-21 26 -22 96 -131 90 -140 -4 -6 -1 -10 4 -10 6 0 11 -9 11 -20 0 -11 4 -20
8 -20 5 0 9 -6 10 -12 2 -23 16 -66 30 -93 3 -5 -3 -3 -14 5 -18 14 -18 14 -4
-4 17 -21 20 -36 23 -96 2 -25 7 -51 11 -59 7 -10 6 -12 -4 -6 -10 6 -12 1 -7
-22 3 -17 3 -34 0 -37 -4 -4 -8 -23 -10 -44 -5 -58 -6 -62 -14 -62 -4 0 -6 -9
-4 -20 2 -11 0 -20 -4 -20 -4 0 -8 -6 -8 -12 0 -19 -43 -109 -59 -125 -8 -8
-14 -19 -14 -24 0 -19 -157 -185 -167 -175 -2 2 -16 -7 -30 -20 -14 -13 -30
-24 -35 -24 -5 0 -16 -7 -25 -15 -8 -8 -19 -13 -24 -10 -5 4 -9 1 -9 -5 0 -6
-4 -9 -9 -5 -5 3 -12 1 -15 -4 -5 -8 -63 -25 -78 -22 -5 0 -8 -3 -8 -8 0 -5
-8 -8 -17 -6 -10 1 -22 0 -28 -4 -18 -10 -35 -9 -35 2 0 8 -3 8 -9 -1 -5 -8
-33 -14 -71 -16 -52 -2 -66 -7 -82 -25 -10 -13 -18 -19 -18 -15 0 5 -9 -9 -19
-31 -16 -34 -16 -42 -5 -56 8 -9 11 -18 8 -22 -3 -3 3 -12 15 -19 12 -7 21
-19 21 -26 0 -7 4 -11 9 -7 5 3 12 2 15 -3 9 -15 165 -6 251 15 11 3 28 6 38
6 9 1 17 5 17 9 0 4 3 7 8 7 4 -1 10 0 15 1 4 1 10 3 15 4 4 1 24 10 46 19 21
9 40 17 41 17 11 0 145 83 145 90 0 5 8 11 18 14 26 9 172 154 172 172 0 2 9
14 20 26 11 12 20 28 20 35 0 7 7 13 15 13 9 0 12 6 9 15 -4 8 -1 15 5 15 6 0
10 3 10 8 -4 21 2 32 13 26 7 -5 9 -2 5 8 -3 9 0 21 6 27 7 7 12 15 12 19 1
18 30 102 35 102 6 0 9 26 11 78 1 12 5 22 9 22 4 0 6 11 5 25 -2 14 0 25 3
25 4 0 7 11 7 25 0 14 -4 25 -8 25 -4 0 -4 8 1 18 5 9 6 26 2 37 -4 11 -4 28
1 37 6 10 5 19 -1 23 -8 5 -7 11 1 21 6 8 7 14 2 14 -6 0 -10 12 -11 28 0 15
-1 29 -2 32 -1 3 -4 14 -5 25 -2 11 -8 34 -13 52 -6 17 -8 34 -4 37 3 3 0 6
-6 6 -6 0 -9 7 -5 17 5 12 3 14 -7 8 -10 -6 -12 -4 -7 8 3 10 2 17 -4 17 -6 0
-7 5 -4 10 3 6 2 10 -4 10 -6 0 -8 7 -5 15 4 8 2 15 -4 15 -6 0 -13 14 -17 31
-4 17 -13 33 -21 36 -8 3 -14 11 -14 19 0 15 -96 145 -116 157 -8 5 -11 14 -8
20 4 7 4 9 -1 5 -4 -4 -13 -2 -20 5 -41 40 -85 77 -85 71 0 -4 -8 2 -18 12
-30 32 -215 128 -235 121 -6 -2 -18 2 -25 9 -7 7 -19 11 -27 8 -8 -4 -15 -2
-15 3 0 5 -6 10 -12 10 -7 0 -35 4 -63 8 -27 4 -59 8 -70 10 -11 1 -24 3 -29
4 -5 0 -7 4 -3 7 3 3 -1 23 -8 44 -7 21 -11 41 -8 44 4 3 1 6 -5 6 -7 0 -12 8
-12 18 0 10 -3 22 -7 26 -4 3 -8 16 -10 28 -2 12 -8 25 -14 29 -6 3 -10 8 -8
10 3 5 -44 101 -72 145 -10 17 -15 35 -11 39 4 5 1 5 -5 1 -8 -4 -13 -1 -13 8
0 8 -4 16 -9 18 -5 2 -11 9 -13 17 -2 7 -12 23 -23 35 -44 49 -63 75 -58 80 4
3 -1 6 -10 6 -10 0 -17 4 -17 10 0 5 -31 41 -70 79 -38 38 -70 67 -70 64 0 -2
-11 8 -25 23 -14 15 -25 24 -25 20 0 -3 -8 2 -19 12 -34 32 -65 52 -79 52 -7
0 -10 5 -7 10 3 6 -1 10 -9 10 -9 0 -16 5 -16 12 0 6 -3 8 -6 5 -4 -4 -20 3
-35 14 -16 11 -29 17 -29 12 0 -4 -7 0 -15 11 -7 10 -18 15 -24 11 -6 -3 -11
-1 -11 5 0 6 -4 8 -10 5 -5 -3 -10 -1 -10 5 0 6 -4 8 -10 5 -5 -3 -10 -2 -10
4 0 6 -18 15 -40 21 -22 6 -39 14 -36 18 2 4 -3 8 -12 9 -25 2 -45 8 -59 16
-7 5 -13 6 -13 2 0 -3 -13 1 -30 10 -16 9 -30 14 -30 11 0 -2 -17 0 -37 6 -20
5 -55 11 -76 13 -22 2 -43 7 -46 12 -3 4 -24 8 -46 8 -22 0 -43 5 -47 10 -5 6
-8 5 -8 -2 0 -7 -5 -13 -11 -13 -5 0 -8 3 -6 8 3 4 -6 8 -19 8 -15 1 -22 -2
-17 -10 4 -7 2 -7 -7 1 -9 9 -19 9 -33 2 -15 -9 -18 -8 -12 2 6 9 3 10 -10 6
-9 -4 -23 -3 -30 3 -10 8 -15 8 -21 -1z"/>
<path d="M2603 2679 c5 -14 -1 -17 -28 -16 -19 0 -32 4 -29 8 2 4 -9 4 -25 -1
-17 -5 -42 -7 -56 -6 -14 2 -27 0 -30 -4 -2 -3 -20 -6 -40 -5 -19 0 -35 -3
-35 -7 0 -4 -3 -7 -7 -7 -5 1 -10 1 -13 -1 -5 -1 -51 -10 -82 -14 -9 -1 -23
-7 -31 -14 -7 -7 -17 -9 -20 -5 -4 3 -7 1 -7 -7 0 -9 -3 -10 -14 -1 -11 9 -15
8 -20 -4 -3 -9 -10 -13 -16 -10 -5 3 -10 1 -10 -4 0 -6 -4 -10 -8 -9 -10 4
-86 -34 -90 -45 -2 -4 -8 -5 -13 -1 -5 3 -9 0 -9 -6 0 -6 -4 -9 -9 -5 -5 3
-16 -4 -24 -15 -7 -11 -17 -17 -20 -14 -4 4 -9 -1 -13 -10 -3 -9 -10 -14 -14
-11 -4 2 -15 -4 -25 -15 -10 -11 -24 -20 -32 -20 -8 0 -12 -3 -10 -7 3 -5 -1
-14 -9 -21 -8 -7 -14 -10 -14 -7 0 3 -20 -15 -45 -42 -25 -26 -45 -51 -45 -56
0 -4 -4 -5 -10 -2 -5 3 -10 0 -10 -8 0 -8 -7 -18 -16 -21 -9 -4 -14 -9 -11
-12 2 -3 -6 -17 -19 -31 -13 -14 -22 -28 -19 -31 3 -3 -4 -12 -15 -19 -11 -8
-18 -19 -15 -24 4 -5 1 -9 -5 -9 -6 0 -9 -4 -6 -9 4 -5 3 -11 -1 -13 -10 -4
-47 -76 -42 -80 2 -2 -6 -17 -19 -35 -14 -20 -19 -34 -12 -38 7 -4 5 -13 -7
-23 -10 -10 -19 -28 -19 -42 -2 -39 -3 -42 -13 -36 -5 4 -7 -3 -4 -14 3 -11
-1 -28 -8 -37 -10 -12 -10 -14 -1 -9 6 4 12 2 12 -3 0 -6 -3 -11 -8 -11 -4 0
-8 -12 -8 -27 -5 -101 -8 -123 -18 -123 -7 0 -7 -3 -1 -8 6 -4 10 -34 10 -67
0 -33 3 -74 6 -92 4 -18 2 -37 -5 -44 -8 -9 -8 -10 2 -5 7 4 13 2 14 -6 0 -7
2 -17 2 -23 1 -5 5 -16 10 -24 7 -11 6 -12 -5 -6 -11 7 -12 6 -2 -7 7 -8 10
-18 6 -21 -3 -4 -2 -7 4 -7 6 0 9 -9 6 -20 -3 -12 0 -20 6 -20 7 0 9 -5 6 -10
-4 -6 -1 -17 5 -25 7 -8 9 -15 5 -15 -4 0 -2 -7 5 -15 6 -8 8 -20 4 -26 -4 -8
-3 -9 4 -5 7 4 12 1 12 -6 0 -8 13 -39 29 -70 16 -31 26 -60 23 -64 -4 -4 -1
-4 6 0 7 4 12 2 12 -7 0 -8 11 -26 26 -42 14 -15 23 -30 20 -33 -3 -3 6 -16
20 -29 14 -12 23 -23 21 -23 -6 0 77 -83 137 -137 25 -23 46 -40 46 -37 0 3
10 -4 22 -16 12 -11 34 -26 50 -32 15 -7 28 -16 28 -20 0 -5 9 -8 20 -8 10 0
23 -8 29 -17 5 -10 11 -17 13 -15 2 2 17 -2 33 -9 36 -15 41 -16 61 -18 8 0
12 -5 9 -11 -3 -6 1 -7 9 -4 9 3 16 1 16 -5 0 -6 3 -10 8 -9 18 5 82 -14 82
-25 0 -7 4 -6 10 3 5 8 10 10 10 4 0 -6 10 -10 23 -10 12 1 31 -5 41 -13 12
-10 16 -11 12 -3 -6 9 -2 11 16 8 58 -13 119 -16 112 -4 -5 8 -3 8 7 2 16 -10
159 -12 159 -2 0 8 21 5 38 -6 8 -4 11 -3 10 5 -2 7 11 13 32 16 19 2 43 4 53
5 9 1 17 5 17 8 0 4 6 7 13 7 22 1 42 8 49 18 5 6 8 4 8 -4 0 -11 4 -9 15 5 8
10 15 16 15 11 0 -4 18 2 40 13 22 11 40 17 40 13 0 -5 5 0 11 10 5 9 19 17
29 17 11 0 20 5 20 11 0 5 4 8 9 5 5 -3 20 5 34 18 14 13 28 21 31 18 3 -3 6
0 6 7 0 7 4 10 9 6 5 -3 16 4 24 15 7 11 17 17 20 14 4 -4 9 1 13 10 3 9 13
16 21 16 8 0 11 5 8 10 -3 6 -2 10 2 10 5 0 30 20 56 45 27 25 45 45 42 45 -3
0 5 11 17 24 13 13 27 21 32 18 5 -3 6 0 3 5 -4 6 4 23 18 39 13 15 23 30 21
32 -2 2 7 15 20 29 13 14 21 29 18 34 -3 5 0 9 5 9 6 0 11 8 11 19 0 10 7 24
15 31 8 7 15 16 15 20 0 4 8 25 17 46 9 22 18 42 19 47 1 4 2 8 4 10 2 3 11
40 12 55 1 6 4 12 8 12 3 0 6 8 7 18 1 9 4 31 8 47 4 17 8 40 9 52 1 12 5 25
9 29 4 4 2 13 -4 21 -6 7 -7 13 -2 13 5 0 8 51 7 118 -3 124 -5 139 -18 161
-7 10 -5 12 3 6 10 -6 11 -3 2 14 -7 11 -9 21 -5 21 3 0 1 7 -6 15 -10 12 -10
15 1 15 9 0 10 3 3 8 -13 8 -47 112 -40 119 3 3 -3 17 -14 31 -11 13 -17 28
-14 33 3 5 1 9 -4 9 -10 0 -36 53 -32 66 1 4 -2 10 -7 13 -4 3 -26 33 -48 66
-49 74 -60 86 -70 77 -5 -4 -5 -2 -2 4 3 6 -18 36 -48 67 -30 31 -55 55 -55
52 0 -3 -10 5 -22 18 -13 12 -22 26 -20 30 1 5 -2 6 -8 2 -5 -3 -13 0 -16 9
-3 8 -12 12 -20 9 -8 -3 -14 1 -14 11 0 9 -3 15 -7 15 -22 -4 -33 2 -27 13 5
7 2 9 -9 5 -9 -3 -18 0 -21 9 -3 9 -10 12 -16 9 -5 -3 -10 -2 -10 4 0 5 -16
15 -35 21 -19 6 -35 16 -35 21 0 6 -4 8 -9 5 -5 -3 -20 3 -33 14 -14 11 -28
17 -31 13 -4 -3 -25 2 -47 11 -23 9 -45 14 -50 11 -5 -3 -12 0 -16 6 -5 8 -3
9 6 4 9 -6 11 -4 5 4 -5 9 -10 10 -18 2 -7 -7 -16 -7 -29 0 -10 5 -23 7 -28 4
-6 -3 -10 -3 -10 2 0 4 -19 9 -42 11 -77 4 -89 7 -99 22 -9 13 -10 13 -6 -1z
m-74 -230 c9 5 35 7 56 5 22 -3 47 -6 55 -6 8 -1 18 -6 22 -12 6 -8 8 -8 8 1
0 12 50 8 60 -5 3 -4 19 -8 35 -9 50 -3 65 -7 65 -16 0 -4 4 -6 9 -2 5 3 15 0
23 -7 7 -7 18 -13 23 -14 25 -3 55 -17 55 -27 0 -6 3 -7 7 -4 3 4 12 2 20 -4
7 -6 13 -8 13 -5 0 4 7 0 16 -8 8 -9 20 -13 26 -10 7 4 8 2 4 -4 -4 -8 3 -16
18 -22 14 -5 26 -14 26 -20 0 -5 6 -10 13 -10 7 0 40 -28 72 -62 33 -35 63
-62 68 -60 4 1 7 -7 7 -18 0 -10 6 -23 14 -27 20 -12 77 -118 69 -127 -5 -4
-3 -6 2 -4 6 2 12 -1 13 -7 2 -5 8 -16 14 -22 6 -7 7 -13 4 -13 -4 0 -1 -10 6
-22 7 -13 11 -26 10 -30 -1 -5 3 -8 9 -8 5 0 7 -4 4 -10 -3 -5 -3 -16 2 -22 4
-7 8 -17 9 -23 1 -5 6 -19 10 -29 6 -15 4 -17 -7 -11 -12 8 -12 6 0 -8 7 -9
11 -23 8 -31 -3 -7 0 -19 6 -25 6 -6 7 -11 3 -11 -5 0 -3 -7 4 -15 10 -12 9
-15 -6 -15 -18 -1 -18 -1 -1 -11 14 -8 15 -14 6 -31 -6 -11 -7 -18 -2 -15 11
7 10 -60 -1 -70 -9 -9 -7 -25 2 -19 4 2 8 -4 8 -14 0 -11 -5 -16 -14 -12 -11
4 -12 1 -4 -15 6 -11 7 -25 2 -33 -4 -7 -6 -19 -3 -27 3 -7 -1 -13 -8 -13 -11
0 -11 -3 1 -10 10 -6 11 -10 3 -10 -7 0 -13 -7 -13 -15 0 -7 -8 -19 -17 -25
-15 -10 -15 -11 -1 -6 18 5 18 -8 0 -41 -7 -13 -10 -23 -7 -23 4 0 -1 -7 -9
-16 -9 -8 -16 -21 -16 -28 0 -8 -7 -19 -15 -26 -8 -7 -15 -20 -15 -29 0 -9
-10 -27 -23 -41 -13 -14 -25 -29 -26 -35 -6 -19 -28 -45 -33 -39 -3 3 -9 -7
-12 -21 -4 -14 -10 -24 -14 -22 -4 2 -15 -4 -24 -15 -10 -10 -15 -18 -12 -18
4 0 -5 -9 -19 -20 -14 -11 -31 -20 -38 -20 -7 0 -9 -3 -6 -7 6 -6 -34 -41 -41
-35 -1 1 -15 -9 -30 -23 -15 -14 -34 -25 -43 -25 -9 0 -22 -7 -29 -15 -7 -8
-18 -15 -26 -15 -7 0 -20 -7 -28 -16 -9 -8 -16 -13 -16 -9 0 3 -10 0 -22 -7
-34 -18 -47 -18 -42 0 5 14 4 14 -6 -1 -6 -9 -18 -17 -25 -17 -8 0 -15 -6 -15
-12 0 -9 -4 -8 -10 2 -7 12 -10 12 -10 1 0 -7 -6 -11 -13 -8 -8 3 -20 1 -27
-3 -8 -5 -22 -4 -33 2 -16 8 -19 7 -15 -4 4 -9 -1 -14 -12 -14 -10 0 -16 4
-14 8 6 9 -10 11 -19 2 -10 -11 -77 -12 -70 -1 3 5 -4 4 -15 -2 -17 -9 -23 -8
-31 6 -10 17 -10 17 -11 -1 0 -15 -3 -16 -15 -6 -8 7 -15 9 -15 4 0 -4 -5 -3
-11 3 -6 6 -18 9 -25 6 -8 -3 -22 1 -31 8 -14 12 -16 12 -8 0 6 -11 4 -13 -11
-7 -10 4 -23 9 -29 10 -5 1 -16 5 -22 9 -7 5 -17 5 -23 2 -5 -3 -10 -1 -10 4
0 6 -3 10 -7 9 -7 -1 -33 8 -83 29 -8 3 -18 5 -22 5 -5 -1 -8 5 -8 14 0 8 -5
12 -10 9 -10 -6 -72 31 -78 47 -2 5 -7 6 -11 3 -4 -2 -24 11 -44 30 -21 19
-42 35 -47 35 -6 0 -10 6 -10 14 0 8 -9 18 -21 21 -11 4 -18 9 -15 12 3 3 -6
14 -19 25 -14 11 -25 26 -25 34 0 8 -5 14 -10 14 -6 0 -15 12 -20 26 -6 15
-14 22 -22 18 -6 -4 -8 -3 -4 4 3 6 -1 18 -10 26 -8 9 -12 16 -8 16 3 0 1 7
-6 15 -7 8 -9 15 -6 15 4 0 0 7 -8 16 -9 8 -14 20 -11 25 4 5 1 9 -5 9 -7 0
-10 6 -8 12 3 7 -1 19 -9 26 -7 8 -11 18 -8 23 4 5 2 9 -2 9 -9 0 -13 15 -16
65 -1 17 -5 32 -9 35 -13 10 -17 60 -5 60 9 0 9 2 1 8 -6 4 -11 14 -12 22 -8
101 -7 130 2 130 6 0 4 5 -4 10 -8 5 -10 10 -4 10 6 0 11 12 11 28 1 47 6 77
17 91 9 12 8 13 -4 7 -8 -4 -6 0 4 8 13 10 15 16 7 16 -11 0 -11 3 -1 15 7 8
9 15 4 15 -4 0 0 6 11 13 11 9 14 16 7 20 -9 6 29 101 47 117 3 3 7 12 9 20 2
8 8 17 13 18 5 2 9 10 9 18 0 8 5 14 10 14 6 0 10 5 10 10 0 6 11 23 24 37 14
15 23 30 20 35 -3 4 2 8 11 8 9 0 13 5 10 10 -3 6 -2 10 3 10 5 0 21 11 36 25
15 14 24 25 21 25 -3 0 0 6 7 14 7 8 16 12 19 10 3 -1 17 8 32 22 14 13 31 24
37 24 5 0 10 5 10 10 0 6 5 10 11 10 6 0 17 7 26 15 8 8 19 13 24 10 5 -4 9
-1 9 5 0 7 7 9 16 6 8 -3 13 -2 10 3 -5 8 29 25 47 22 4 -1 7 4 7 11 0 6 3 9
6 5 4 -3 19 0 34 8 15 8 30 11 33 8 4 -3 13 0 21 6 8 7 30 13 50 14 20 1 36 5
36 8 0 3 18 5 40 5 22 -1 40 3 41 9 0 5 3 4 6 -2 3 -9 10 -10 22 -4z"/>
<path d="M2315 2130 c-4 -6 -10 -8 -15 -5 -4 3 -11 -2 -14 -11 -3 -9 -11 -12
-18 -8 -7 4 -10 4 -6 0 3 -4 0 -19 -7 -33 -8 -15 -12 -30 -9 -35 3 -4 0 -8 -6
-8 -8 0 -8 -6 0 -20 8 -14 8 -20 0 -20 -8 0 -8 -6 0 -20 6 -11 7 -20 2 -20 -8
0 -7 -69 2 -77 3 -3 1 -16 -4 -29 -6 -15 -6 -26 1 -30 6 -3 6 -10 1 -17 -5 -7
-6 -21 -2 -32 4 -11 4 -30 -1 -42 -5 -13 -4 -25 2 -29 6 -3 6 -10 1 -17 -5 -7
-6 -21 -2 -32 4 -11 4 -30 -1 -42 -5 -13 -4 -25 2 -29 6 -3 6 -10 1 -17 -5 -7
-6 -21 -2 -32 4 -11 4 -30 -1 -42 -5 -13 -4 -25 1 -28 6 -3 6 -15 0 -30 -6
-15 -6 -27 1 -30 5 -4 6 -12 2 -18 -9 -15 -12 -47 -4 -47 8 0 5 -65 -4 -79 -3
-6 -1 -11 5 -11 8 0 8 -6 0 -20 -8 -14 -8 -20 0 -20 8 0 8 -6 0 -20 -7 -14 -7
-20 0 -20 5 0 9 -3 9 -7 -4 -26 31 -76 56 -79 6 -1 21 -5 34 -9 15 -5 21 -3
17 3 -3 6 2 8 12 5 11 -2 26 2 34 11 9 8 18 12 22 9 3 -3 8 2 12 11 3 9 10 13
15 10 5 -3 9 -1 9 4 0 9 45 34 65 37 6 0 9 6 8 13 -2 7 4 12 12 12 7 0 19 8
24 18 7 11 11 12 11 4 0 -10 4 -10 16 2 8 9 20 16 25 16 6 0 8 4 5 9 -3 5 12
16 34 25 22 9 40 20 40 24 0 9 46 35 65 37 6 0 9 6 8 13 -2 7 4 12 12 12 8 0
15 5 15 11 0 5 5 7 10 4 6 -3 10 -1 10 6 0 7 3 9 6 6 4 -4 15 3 25 14 9 11 20
20 24 19 4 -1 17 7 30 18 13 11 26 18 29 15 3 -4 6 -1 6 6 0 7 5 9 10 6 6 -3
10 -3 10 2 0 4 27 26 60 48 32 21 56 43 54 47 -3 4 0 8 6 8 7 0 10 7 6 15 -3
8 0 15 6 15 6 0 8 3 5 7 -4 3 -1 13 6 21 9 13 9 14 0 8 -7 -4 -14 -2 -14 3 -1
6 -2 16 -3 22 0 6 -9 16 -18 23 -10 7 -18 19 -18 26 0 7 -3 10 -7 7 -3 -4 -12
1 -20 11 -10 11 -12 12 -8 2 4 -10 2 -9 -8 3 -8 9 -19 17 -26 17 -6 0 -11 5
-11 10 0 6 -7 10 -15 10 -8 0 -15 5 -15 10 0 6 -7 10 -15 10 -8 0 -15 5 -15
10 0 6 -7 10 -15 10 -8 0 -15 5 -15 10 0 6 -7 10 -15 10 -8 0 -15 5 -15 10 0
6 -7 10 -15 10 -7 0 -19 8 -24 18 -6 9 -11 13 -11 8 0 -6 -7 -1 -16 10 -8 10
-13 12 -9 4 4 -10 2 -9 -8 3 -8 9 -19 17 -26 17 -6 0 -11 4 -11 9 0 5 -12 12
-26 15 -15 4 -24 10 -20 13 3 3 -11 15 -32 26 -20 11 -39 23 -42 27 -3 3 -21
15 -40 26 -19 10 -39 25 -43 32 -4 6 -13 12 -18 12 -6 0 -17 7 -26 15 -8 8
-19 13 -24 10 -5 -4 -9 2 -9 11 0 10 -3 15 -6 12 -3 -4 -22 5 -41 18 -38 25
-59 31 -47 13 5 -8 1 -8 -14 0 -14 7 -23 8 -27 1z m177 -328 c7 -7 18 -12 26
-12 7 0 10 -4 7 -10 -3 -5 -1 -10 5 -10 19 0 139 -87 132 -95 -4 -5 -2 -5 5
-2 6 4 18 0 26 -8 9 -8 20 -15 24 -15 5 0 20 -10 33 -22 14 -13 27 -22 30 -20
3 1 5 -2 5 -7 0 -10 -132 -101 -146 -101 -5 0 -9 -4 -9 -9 0 -11 -40 -26 -55
-22 -5 1 -7 -1 -3 -4 10 -10 -39 -48 -52 -40 -5 3 -10 -1 -10 -9 0 -9 -7 -16
-15 -16 -8 0 -15 -5 -15 -11 0 -5 -4 -8 -9 -5 -5 4 -12 0 -15 -6 -3 -7 -3 -2
0 11 5 18 3 22 -7 15 -12 -6 -12 -5 0 9 7 9 10 17 6 17 -4 0 -1 8 6 17 8 9 9
14 3 10 -13 -8 -14 90 -2 109 4 7 1 17 -7 24 -8 7 -12 17 -8 23 4 6 7 23 7 37
1 14 5 31 10 39 6 10 6 12 -2 7 -14 -9 -13 43 1 62 6 8 5 12 -2 12 -7 0 -10 4
-6 9 3 5 1 12 -5 16 -6 4 -8 10 -5 15 7 11 32 7 47 -8z"/>
</g>
</svg>
